HIERARCHY
ROOT Hips
{
	OFFSET 0.000000 0.000000 0.000000
	CHANNELS 6 Xposition Yposition Zposition Xrotation Yrotation Zrotation
	JOINT LeftUpLeg_virtual
	{
		OFFSET 0.000000 0.000000 0.000000
		CHANNELS 3 Xrotation Yrotation Zrotation
		JOINT LeftUpLeg
		{
			OFFSET 13.026900 -6.336304 -1.092800
			CHANNELS 3 Xrotation Yrotation Zrotation
			JOINT LeftLeg
			{
				OFFSET 0.524474 -46.096886 9.782700
				CHANNELS 3 Xrotation Yrotation Zrotation
				JOINT LeftFoot
				{
					OFFSET -0.524474 -53.427422 -12.948200
					CHANNELS 3 Xrotation Yrotation Zrotation
					JOINT LeftToeBase
					{
						OFFSET 0.192200 -14.009700 16.364100
						CHANNELS 3 Xrotation Yrotation Zrotation
						JOINT LeftToe_End
						{
							OFFSET -1.784700 -0.561700 9.474800
							CHANNELS 3 Xrotation Yrotation Zrotation
							End Site
							{
								OFFSET 0 0 0
							}
						}
					}
				}
			}
		}
	}
	JOINT RightUpLeg_virtual
	{
		OFFSET 0.000000 0.000000 0.000000
		CHANNELS 3 Xrotation Yrotation Zrotation
		JOINT RightUpLeg
		{
			OFFSET -12.883000 -6.336304 -1.092800
			CHANNELS 3 Xrotation Yrotation Zrotation
			JOINT RightLeg
			{
				OFFSET -0.524587 -46.096825 9.782800
				CHANNELS 3 Xrotation Yrotation Zrotation
				JOINT RightFoot
				{
					OFFSET 0.524587 -53.427383 -12.948300
					CHANNELS 3 Xrotation Yrotation Zrotation
					JOINT RightToeBase
					{
						OFFSET -0.192200 -14.009700 16.364100
						CHANNELS 3 Xrotation Yrotation Zrotation
						JOINT RightToe_End
						{
							OFFSET 1.784700 -0.561700 9.474800
							CHANNELS 3 Xrotation Yrotation Zrotation
							End Site
							{
								OFFSET 0 0 0
							}
						}
					}
				}
			}
		}
	}
	JOINT Spine_virtual
	{
		OFFSET 0.000000 0.000000 0.000000
		CHANNELS 3 Xrotation Yrotation Zrotation
		JOINT Spine
		{
			OFFSET 0.072000 7.257294 -0.789700
			CHANNELS 3 Xrotation Yrotation Zrotation
			JOINT Spine1
			{
				OFFSET 0.000000 12.508769 -0.658067
				CHANNELS 3 Xrotation Yrotation Zrotation
				JOINT Spine1_split
				{
					OFFSET 0.000000 12.508769 -0.658067
					CHANNELS 3 Xrotation Yrotation Zrotation
					JOINT Spine2
					{
						OFFSET 0.000000 12.508769 -0.658067
						CHANNELS 3 Xrotation Yrotation Zrotation
						JOINT Neck_virtual
						{
							OFFSET 0.000000 0.000000 0.000000
							CHANNELS 3 Xrotation Yrotation Zrotation
							JOINT Neck
							{
								OFFSET 0.000000 14.033295 7.520400
								CHANNELS 3 Xrotation Yrotation Zrotation
								JOINT Head
								{
									OFFSET 0.000000 8.198502 5.703100
									CHANNELS 3 Xrotation Yrotation Zrotation
									JOINT HeadTop_End
									{
										OFFSET 0.000000 17.760803 13.332701
										CHANNELS 3 Xrotation Yrotation Zrotation
										End Site
										{
											OFFSET 0 0 0
										}
									}
								}
							}
						}
						JOINT LeftShoulder_virtual
						{
							OFFSET 0.000000 0.000000 0.000000
							CHANNELS 3 Xrotation Yrotation Zrotation
							JOINT LeftShoulder
							{
								OFFSET 6.292450 5.785301 -0.669000
								CHANNELS 3 Xrotation Yrotation Zrotation
								JOINT LeftShoulder_split
								{
									OFFSET 6.292450 5.785301 -0.669000
									CHANNELS 3 Xrotation Yrotation Zrotation
									JOINT LeftArm
									{
										OFFSET 13.907140 -6.093903 1.965100
										CHANNELS 3 Xrotation Yrotation Zrotation
										JOINT LeftForeArm
										{
											OFFSET 34.140198 0.000000 0.000000
											CHANNELS 3 Xrotation Yrotation Zrotation
											JOINT LeftHand
											{
												OFFSET 40.960209 0.000000 0.000000
												CHANNELS 3 Xrotation Yrotation Zrotation
												End Site
												{
													OFFSET 0 0 0
												}
											}
										}
									}
								}
							}
						}
						JOINT RightShoulder_virtual
						{
							OFFSET 0.000000 0.000000 0.000000
							CHANNELS 3 Xrotation Yrotation Zrotation
							JOINT RightShoulder
							{
								OFFSET -6.292450 5.785301 -0.669000
								CHANNELS 3 Xrotation Yrotation Zrotation
								JOINT RightShoulder_split
								{
									OFFSET -6.292450 5.785301 -0.669000
									CHANNELS 3 Xrotation Yrotation Zrotation
									JOINT RightArm
									{
										OFFSET -13.907140 -6.093903 1.965100
										CHANNELS 3 Xrotation Yrotation Zrotation
										JOINT RightForeArm
										{
											OFFSET -34.140198 0.000000 0.000000
											CHANNELS 3 Xrotation Yrotation Zrotation
											JOINT RightHand
											{
												OFFSET -40.960209 0.000000 0.000000
												CHANNELS 3 Xrotation Yrotation Zrotation
												End Site
												{
													OFFSET 0 0 0
												}
											}
										}
									}
								}
							}
						}
					}
				}
			}
		}
	}
}
MOTION
Frames: 9
Frame Time: 0.03333333
-0.124934 111.543007 -0.301170 0.000000 0.000000 0.000000 -24.508836 -2.301065 -1.948782 2.711461 19.458340 10.974461 32.776353 5.350106 -9.557714 -14.971216 29.992286 7.133854 0.119196 0.028200 -0.826515 0.000000 0.000000 0.000000 -24.508836 -2.301065 -1.948782 17.418166 -14.674323 -3.646819 29.719451 -9.884700 0.343517 -18.587463 -28.686241 2.368381 0.588312 -0.006910 0.681778 0.000000 0.000000 0.000000 -24.508836 -2.301065 -1.948782 11.216762 -4.847460 -0.383996 3.545658 -2.400646 -0.151373 0.000000 0.000000 0.000000 0.000000 0.000000 0.000000 3.557024 -2.388379 -0.108335 1.551788 0.634300 -1.308391 -6.938528 0.762141 3.865456 0.000000 0.000000 0.000000 3.557024 -2.388379 -0.108335 0.445073 -15.488175 -11.025448 0.000000 0.000000 0.000000 -20.285394 3.054787 -36.773564 0.000076 -67.201931 0.000084 0.000000 0.000000 0.000000 3.557024 -2.388379 -0.108335 0.064828 14.691500 14.953772 0.000000 0.000000 0.000000 -12.069993 -6.923743 61.446629 0.000010 39.415434 -0.000006 0.000000 0.000000 0.000000 
-1.056227 111.203415 0.257137 0.000000 0.000000 0.000000 -24.550721 -4.071690 -3.171536 0.194586 19.881612 13.594882 36.346934 5.564269 -9.378120 -12.148232 30.097177 5.604613 -1.248958 0.164418 -2.525064 0.000000 0.000000 0.000000 -24.550721 -4.071690 -3.171536 17.526105 -14.078968 -2.939117 30.187479 -9.516942 0.549383 -19.534467 -27.573556 1.746888 0.601102 -0.007235 0.696472 0.000000 0.000000 0.000000 -24.550721 -4.071690 -3.171536 11.248031 -4.952780 -0.020648 3.545659 -2.400646 -0.151373 0.000000 0.000000 0.000000 0.000000 0.000000 0.000000 3.557024 -2.388380 -0.108336 1.594337 0.627995 -1.252938 -6.802727 0.692375 4.007736 0.000000 0.000000 0.000000 3.557024 -2.388380 -0.108336 0.460827 -15.508028 -10.923493 0.000000 0.000000 0.000000 -20.284304 3.109529 -36.878920 0.000043 -67.192888 0.000039 0.000000 0.000000 0.000000 3.557024 -2.388380 -0.108336 0.056286 14.633621 15.032355 0.000000 0.000000 0.000000 -11.965742 -6.692804 61.317142 -0.000011 39.454062 0.000012 0.000000 0.000000 0.000000 
-2.011264 110.792320 0.835632 0.000000 0.000000 0.000000 -24.618708 -5.879646 -4.397320 -2.786863 19.944820 16.439675 40.236982 5.453401 -9.140580 -8.577696 30.141072 5.038678 -2.027092 0.536065 -5.532827 0.000000 0.000000 0.000000 -24.618708 -5.879646 -4.397320 17.578124 -13.520690 -2.273624 30.795072 -9.303281 0.687408 -20.487371 -26.256970 1.290240 0.572044 -0.006558 0.663243 0.000000 0.000000 0.000000 -24.618708 -5.879646 -4.397320 11.278718 -5.047430 0.328639 3.545658 -2.400646 -0.151373 0.000000 0.000000 0.000000 0.000000 0.000000 0.000000 3.557021 -2.388379 -0.108335 1.648778 0.606476 -1.184733 -6.610729 0.500819 4.168911 0.000000 0.000000 0.000000 3.557021 -2.388379 -0.108335 0.472353 -15.517852 -10.848849 0.000000 0.000000 0.000000 -20.272637 3.135293 -36.949209 0.000001 -67.183503 -0.000003 0.000000 0.000000 0.000000 3.557021 -2.388379 -0.108335 0.054215 14.638967 15.044540 0.000000 0.000000 0.000000 -11.849491 -6.498836 61.233985 -0.000000 39.468859 -0.000004 0.000000 0.000000 0.000000 
-2.775779 110.414970 1.361008 0.000000 0.000000 0.000000 -24.716324 -7.737560 -5.588750 -5.494696 19.475996 18.714616 43.494744 4.895226 -8.663887 -5.407465 28.305923 4.746720 -2.647128 0.715262 -6.798845 0.000000 0.000000 0.000000 -24.716324 -7.737560 -5.588750 17.547917 -13.025207 -1.806861 31.379648 -9.110403 0.762281 -21.252214 -24.811762 1.021988 0.539284 -0.005816 0.625651 0.000000 0.000000 0.000000 -24.716324 -7.737560 -5.588750 11.304927 -5.125327 0.622629 3.545658 -2.400648 -0.151373 0.000000 0.000000 0.000000 0.000000 0.000000 0.000000 3.557024 -2.388377 -0.108335 1.686211 0.561395 -1.092499 -6.453757 0.145329 4.405431 0.000000 0.000000 0.000000 3.557024 -2.388377 -0.108335 0.474329 -15.543187 -10.838171 0.000000 0.000000 0.000000 -20.339596 3.221962 -37.004401 0.000090 -67.196023 0.000073 0.000000 0.000000 0.000000 3.557024 -2.388377 -0.108335 0.058778 14.667365 14.999022 0.000000 0.000000 0.000000 -11.779098 -6.388078 61.227250 -0.000002 39.443420 0.000013 0.000000 0.000000 0.000000 
-3.285506 110.132553 1.861511 0.000000 0.000000 0.000000 -24.847888 -9.652471 -6.724219 -7.456506 18.198197 19.771731 46.153156 4.211280 -7.930926 -5.114549 20.710319 3.446865 -0.474012 0.151734 -3.165856 0.000000 0.000000 0.000000 -24.847888 -9.652471 -6.724219 17.480611 -12.610309 -1.597540 31.823695 -8.823241 0.791678 -21.781898 -23.315990 0.905902 0.548102 -0.006027 0.635790 0.000000 0.000000 0.000000 -24.847888 -9.652471 -6.724219 11.324207 -5.182646 0.836157 3.545658 -2.400645 -0.151372 0.000000 0.000000 0.000000 0.000000 0.000000 0.000000 3.557024 -2.388380 -0.108335 1.688884 0.501063 -0.991729 -6.384987 -0.285506 4.706243 0.000000 0.000000 0.000000 3.557024 -2.388380 -0.108335 0.465633 -15.590301 -10.898830 0.000000 0.000000 0.000000 -20.505437 3.391259 -37.049439 0.000041 -67.235645 0.000041 0.000000 0.000000 0.000000 3.557024 -2.388380 -0.108335 0.066777 14.690994 14.928172 0.000000 0.000000 0.000000 -11.757142 -6.341265 61.272370 0.000014 39.391139 -0.000009 0.000000 0.000000 0.000000 
-3.505674 110.009789 2.360641 0.000000 0.000000 0.000000 -25.020696 -11.646974 -7.768348 -8.349623 16.063628 19.447215 47.274010 3.619718 -6.964618 -6.378023 13.085827 0.669822 2.357551 0.000003 -0.000002 0.000000 0.000000 0.000000 -25.020696 -11.646974 -7.768348 17.409529 -12.188355 -1.628632 32.006536 -8.415690 0.700140 -22.005833 -21.905819 0.945824 0.614914 -0.007550 0.712190 0.000000 0.000000 0.000000 -25.020696 -11.646974 -7.768348 11.332321 -5.202832 0.926251 3.545658 -2.400647 -0.151372 0.000000 0.000000 0.000000 0.000000 0.000000 0.000000 3.557023 -2.388377 -0.108335 1.666314 0.447322 -0.916925 -6.377654 -0.615319 4.977462 0.000000 0.000000 0.000000 3.557023 -2.388377 -0.108335 0.456226 -15.649951 -10.964344 0.000000 0.000000 0.000000 -20.661935 3.569059 -37.076954 0.000032 -67.283510 -0.000004 0.000000 0.000000 0.000000 3.557023 -2.388377 -0.108335 0.071796 14.718206 14.879835 0.000000 0.000000 0.000000 -11.715992 -6.279151 61.286522 0.000005 39.362237 -0.000011 0.000000 0.000000 0.000000 
-3.460442 110.050728 2.875080 0.000000 0.000000 0.000000 -25.241140 -13.724870 -8.723384 -8.395806 13.363341 18.019320 46.764745 3.222950 -5.701398 -8.015378 8.371231 -2.649947 3.682370 -0.000006 -0.000001 0.000000 0.000000 0.000000 -25.241140 -13.724870 -8.723384 17.343109 -11.756940 -1.897556 31.920554 -7.920146 0.500661 -21.937383 -20.546754 1.135826 0.713010 -0.010103 0.824311 0.000000 0.000000 0.000000 -25.241140 -13.724870 -8.723384 11.328821 -5.180272 0.889996 3.545659 -2.400646 -0.151372 0.000000 0.000000 0.000000 0.000000 0.000000 0.000000 3.557024 -2.388381 -0.108336 1.641058 0.417383 -0.890169 -6.382923 -0.720071 5.111568 0.000000 0.000000 0.000000 3.557024 -2.388381 -0.108336 0.461046 -15.712835 -10.937713 0.000000 0.000000 0.000000 -20.665921 3.663054 -37.087425 0.000014 -67.314492 -0.000002 0.000000 0.000000 0.000000 3.557024 -2.388381 -0.108336 0.069190 14.759996 14.887874 0.000000 0.000000 0.000000 -11.599014 -6.138007 61.204874 0.000033 39.395377 -0.000030 0.000000 0.000000 0.000000 
-3.216475 110.219109 3.404842 0.000000 0.000000 0.000000 -25.512573 -15.867672 -9.614190 -7.779353 10.537892 15.944498 45.003007 3.264144 -4.175227 -9.390201 6.121006 -5.545596 4.650501 0.000008 -0.000004 0.000000 0.000000 0.000000 -25.512573 -15.867672 -9.614190 17.266551 -11.542138 -2.428067 31.614658 -6.683902 0.382750 -21.777063 -19.556420 1.050105 0.804067 -0.012843 0.928255 0.000000 0.000000 0.000000 -25.512573 -15.867672 -9.614190 11.316019 -5.126547 0.751222 3.545657 -2.400646 -0.151372 0.000000 0.000000 0.000000 0.000000 0.000000 0.000000 3.557024 -2.388378 -0.108336 1.620887 0.414112 -0.908461 -6.409941 -0.591721 5.068693 0.000000 0.000000 0.000000 3.557024 -2.388378 -0.108336 0.483366 -15.763708 -10.798694 0.000000 0.000000 0.000000 -20.490882 3.638691 -37.088504 -0.000072 -67.315722 -0.000075 0.000000 0.000000 0.000000 3.557024 -2.388378 -0.108336 0.060072 14.786595 14.950575 0.000000 0.000000 0.000000 -11.436755 -5.927544 61.048716 -0.000005 39.470748 0.000010 0.000000 0.000000 0.000000 
-2.863962 110.423126 3.896587 0.000000 0.000000 0.000000 -25.830899 -18.021512 -10.504124 -6.252633 8.248685 13.516138 43.032603 5.050626 -2.812448 -10.815384 4.629065 -8.090033 3.738909 0.000000 0.000001 0.000000 0.000000 0.000000 -25.830899 -18.021512 -10.504124 17.090564 -11.688180 -3.114962 31.256435 -4.139336 0.474825 -21.723181 -19.318172 0.303128 0.880997 -0.015389 1.016003 0.000000 0.000000 0.000000 -25.830899 -18.021512 -10.504124 11.300720 -5.080649 0.580642 3.545657 -2.400649 -0.151373 0.000000 0.000000 0.000000 0.000000 0.000000 0.000000 3.557024 -2.388377 -0.108336 1.593888 0.428269 -0.954506 -6.507537 -0.319882 4.907341 0.000000 0.000000 0.000000 3.557024 -2.388377 -0.108336 0.509524 -15.781323 -10.633827 0.000000 0.000000 0.000000 -20.261602 3.536836 -37.087603 -0.000001 -67.292321 -0.000021 0.000000 0.000000 0.000000 3.557024 -2.388377 -0.108336 0.049111 14.759045 15.041485 0.000000 0.000000 0.000000 -11.308649 -5.714322 60.891587 0.000011 39.539671 0.000003 0.000000 0.000000 0.000000 
